<?xml version='1.0' encoding='utf-8'?>
<svg xmlns:xlink="http://www.w3.org/1999/xlink" class="pygal-chart" id="chart-02b15482-4070-4262-874e-d0845389a4ee" viewBox="0 0 800 600" xmlns="http://www.w3.org/2000/svg"><!--Generated with pygal 2.4.0 (etree) ©Kozea 2012-2016 on 2018-11-25--><!--http://pygal.org--><!--http://github.com/Kozea/pygal--><defs><path d="M70.440000 13.990800 A39.409200 39.409200 0 1 1 70.439606 13.990800" id="valuePath-70.4453.4" /><path d="M211.320000 13.990800 A39.409200 39.409200 0 1 1 211.319606 13.990800" id="valuePath-211.3253.4" /><path d="M352.200000 13.990800 A39.409200 39.409200 0 1 1 352.199606 13.990800" id="valuePath-352.253.4" /><path d="M493.080000 13.990800 A39.409200 39.409200 0 1 1 493.079606 13.990800" id="valuePath-493.0853.4" /><path d="M633.960000 13.990800 A39.409200 39.409200 0 1 1 633.959606 13.990800" id="valuePath-633.9653.4" /><path d="M70.440000 120.790800 A39.409200 39.409200 0 1 1 70.439606 120.790800" id="valuePath-70.44160.2" /><path d="M211.320000 120.790800 A39.409200 39.409200 0 1 1 211.319606 120.790800" id="valuePath-211.32160.2" /><path d="M352.200000 120.790800 A39.409200 39.409200 0 1 1 352.199606 120.790800" id="valuePath-352.2160.2" /><path d="M493.080000 120.790800 A39.409200 39.409200 0 1 1 493.079606 120.790800" id="valuePath-493.08160.2" /><path d="M633.960000 120.790800 A39.409200 39.409200 0 1 1 633.959606 120.790800" id="valuePath-633.96160.2" /><path d="M70.440000 227.590800 A39.409200 39.409200 0 1 1 70.439606 227.590800" id="valuePath-70.44267.0" /><path d="M211.320000 227.590800 A39.409200 39.409200 0 1 1 211.319606 227.590800" id="valuePath-211.32267.0" /><path d="M352.200000 227.590800 A39.409200 39.409200 0 1 1 352.199606 227.590800" id="valuePath-352.2267.0" /><path d="M493.080000 227.590800 A39.409200 39.409200 0 1 1 493.079606 227.590800" id="valuePath-493.08267.0" /><path d="M633.960000 227.590800 A39.409200 39.409200 0 1 1 633.959606 227.590800" id="valuePath-633.96267.0" /><path d="M70.440000 334.390800 A39.409200 39.409200 0 1 1 70.439606 334.390800" id="valuePath-70.44373.8" /><path d="M211.320000 334.390800 A39.409200 39.409200 0 1 1 211.319606 334.390800" id="valuePath-211.32373.8" /><style type="text/css">#chart-02b15482-4070-4262-874e-d0845389a4ee{-webkit-user-select:none;-webkit-font-smoothing:antialiased;font-family:Consolas,"Liberation Mono",Menlo,Courier,monospace}#chart-02b15482-4070-4262-874e-d0845389a4ee .title{font-family:Consolas,"Liberation Mono",Menlo,Courier,monospace;font-size:16px}#chart-02b15482-4070-4262-874e-d0845389a4ee .legends .legend text{font-family:Consolas,"Liberation Mono",Menlo,Courier,monospace;font-size:14px}#chart-02b15482-4070-4262-874e-d0845389a4ee .axis text{font-family:Consolas,"Liberation Mono",Menlo,Courier,monospace;font-size:10px}#chart-02b15482-4070-4262-874e-d0845389a4ee .axis text.major{font-family:Consolas,"Liberation Mono",Menlo,Courier,monospace;font-size:10px}#chart-02b15482-4070-4262-874e-d0845389a4ee .text-overlay text.value{font-family:Consolas,"Liberation Mono",Menlo,Courier,monospace;font-size:16px}#chart-02b15482-4070-4262-874e-d0845389a4ee .text-overlay text.label{font-family:Consolas,"Liberation Mono",Menlo,Courier,monospace;font-size:10px}#chart-02b15482-4070-4262-874e-d0845389a4ee .tooltip{font-family:Consolas,"Liberation Mono",Menlo,Courier,monospace;font-size:14px}#chart-02b15482-4070-4262-874e-d0845389a4ee text.no_data{font-family:Consolas,"Liberation Mono",Menlo,Courier,monospace;font-size:64px}
#chart-02b15482-4070-4262-874e-d0845389a4ee{background-color:rgba(249,249,249,1)}#chart-02b15482-4070-4262-874e-d0845389a4ee path,#chart-02b15482-4070-4262-874e-d0845389a4ee line,#chart-02b15482-4070-4262-874e-d0845389a4ee rect,#chart-02b15482-4070-4262-874e-d0845389a4ee circle{-webkit-transition:150ms;-moz-transition:150ms;transition:150ms}#chart-02b15482-4070-4262-874e-d0845389a4ee .graph &gt; .background{fill:rgba(249,249,249,1)}#chart-02b15482-4070-4262-874e-d0845389a4ee .plot &gt; .background{fill:rgba(255,255,255,1)}#chart-02b15482-4070-4262-874e-d0845389a4ee .graph{fill:rgba(0,0,0,.87)}#chart-02b15482-4070-4262-874e-d0845389a4ee text.no_data{fill:rgba(0,0,0,1)}#chart-02b15482-4070-4262-874e-d0845389a4ee .title{fill:rgba(0,0,0,1)}#chart-02b15482-4070-4262-874e-d0845389a4ee .legends .legend text{fill:rgba(0,0,0,.87)}#chart-02b15482-4070-4262-874e-d0845389a4ee .legends .legend:hover text{fill:rgba(0,0,0,1)}#chart-02b15482-4070-4262-874e-d0845389a4ee .axis .line{stroke:rgba(0,0,0,1)}#chart-02b15482-4070-4262-874e-d0845389a4ee .axis .guide.line{stroke:rgba(0,0,0,.54)}#chart-02b15482-4070-4262-874e-d0845389a4ee .axis .major.line{stroke:rgba(0,0,0,.87)}#chart-02b15482-4070-4262-874e-d0845389a4ee .axis text.major{fill:rgba(0,0,0,1)}#chart-02b15482-4070-4262-874e-d0845389a4ee .axis.y .guides:hover .guide.line,#chart-02b15482-4070-4262-874e-d0845389a4ee .line-graph .axis.x .guides:hover .guide.line,#chart-02b15482-4070-4262-874e-d0845389a4ee .stackedline-graph .axis.x .guides:hover .guide.line,#chart-02b15482-4070-4262-874e-d0845389a4ee .xy-graph .axis.x .guides:hover .guide.line{stroke:rgba(0,0,0,1)}#chart-02b15482-4070-4262-874e-d0845389a4ee .axis .guides:hover text{fill:rgba(0,0,0,1)}#chart-02b15482-4070-4262-874e-d0845389a4ee .reactive{fill-opacity:.7;stroke-opacity:.8}#chart-02b15482-4070-4262-874e-d0845389a4ee .ci{stroke:rgba(0,0,0,.87)}#chart-02b15482-4070-4262-874e-d0845389a4ee .reactive.active,#chart-02b15482-4070-4262-874e-d0845389a4ee .active .reactive{fill-opacity:.8;stroke-opacity:.9;stroke-width:4}#chart-02b15482-4070-4262-874e-d0845389a4ee .ci .reactive.active{stroke-width:1.5}#chart-02b15482-4070-4262-874e-d0845389a4ee .series text{fill:rgba(0,0,0,1)}#chart-02b15482-4070-4262-874e-d0845389a4ee .tooltip rect{fill:rgba(255,255,255,1);stroke:rgba(0,0,0,1);-webkit-transition:opacity 150ms;-moz-transition:opacity 150ms;transition:opacity 150ms}#chart-02b15482-4070-4262-874e-d0845389a4ee .tooltip .label{fill:rgba(0,0,0,.87)}#chart-02b15482-4070-4262-874e-d0845389a4ee .tooltip .label{fill:rgba(0,0,0,.87)}#chart-02b15482-4070-4262-874e-d0845389a4ee .tooltip .legend{font-size:.8em;fill:rgba(0,0,0,.54)}#chart-02b15482-4070-4262-874e-d0845389a4ee .tooltip .x_label{font-size:.6em;fill:rgba(0,0,0,1)}#chart-02b15482-4070-4262-874e-d0845389a4ee .tooltip .xlink{font-size:.5em;text-decoration:underline}#chart-02b15482-4070-4262-874e-d0845389a4ee .tooltip .value{font-size:1.5em}#chart-02b15482-4070-4262-874e-d0845389a4ee .bound{font-size:.5em}#chart-02b15482-4070-4262-874e-d0845389a4ee .max-value{font-size:.75em;fill:rgba(0,0,0,.54)}#chart-02b15482-4070-4262-874e-d0845389a4ee .map-element{fill:rgba(255,255,255,1);stroke:rgba(0,0,0,.54) !important}#chart-02b15482-4070-4262-874e-d0845389a4ee .map-element .reactive{fill-opacity:inherit;stroke-opacity:inherit}#chart-02b15482-4070-4262-874e-d0845389a4ee .color-0,#chart-02b15482-4070-4262-874e-d0845389a4ee .color-0 a:visited{stroke:#F44336;fill:#F44336}#chart-02b15482-4070-4262-874e-d0845389a4ee .color-1,#chart-02b15482-4070-4262-874e-d0845389a4ee .color-1 a:visited{stroke:#3F51B5;fill:#3F51B5}#chart-02b15482-4070-4262-874e-d0845389a4ee .color-2,#chart-02b15482-4070-4262-874e-d0845389a4ee .color-2 a:visited{stroke:#009688;fill:#009688}#chart-02b15482-4070-4262-874e-d0845389a4ee .color-3,#chart-02b15482-4070-4262-874e-d0845389a4ee .color-3 a:visited{stroke:#FFC107;fill:#FFC107}#chart-02b15482-4070-4262-874e-d0845389a4ee .color-4,#chart-02b15482-4070-4262-874e-d0845389a4ee .color-4 a:visited{stroke:#FF5722;fill:#FF5722}#chart-02b15482-4070-4262-874e-d0845389a4ee .color-5,#chart-02b15482-4070-4262-874e-d0845389a4ee .color-5 a:visited{stroke:#9C27B0;fill:#9C27B0}#chart-02b15482-4070-4262-874e-d0845389a4ee .color-6,#chart-02b15482-4070-4262-874e-d0845389a4ee .color-6 a:visited{stroke:#03A9F4;fill:#03A9F4}#chart-02b15482-4070-4262-874e-d0845389a4ee .color-7,#chart-02b15482-4070-4262-874e-d0845389a4ee .color-7 a:visited{stroke:#8BC34A;fill:#8BC34A}#chart-02b15482-4070-4262-874e-d0845389a4ee .color-8,#chart-02b15482-4070-4262-874e-d0845389a4ee .color-8 a:visited{stroke:#FF9800;fill:#FF9800}#chart-02b15482-4070-4262-874e-d0845389a4ee .color-9,#chart-02b15482-4070-4262-874e-d0845389a4ee .color-9 a:visited{stroke:#E91E63;fill:#E91E63}#chart-02b15482-4070-4262-874e-d0845389a4ee .color-10,#chart-02b15482-4070-4262-874e-d0845389a4ee .color-10 a:visited{stroke:#2196F3;fill:#2196F3}#chart-02b15482-4070-4262-874e-d0845389a4ee .color-11,#chart-02b15482-4070-4262-874e-d0845389a4ee .color-11 a:visited{stroke:#4CAF50;fill:#4CAF50}#chart-02b15482-4070-4262-874e-d0845389a4ee .color-12,#chart-02b15482-4070-4262-874e-d0845389a4ee .color-12 a:visited{stroke:#FFEB3B;fill:#FFEB3B}#chart-02b15482-4070-4262-874e-d0845389a4ee .color-13,#chart-02b15482-4070-4262-874e-d0845389a4ee .color-13 a:visited{stroke:#673AB7;fill:#673AB7}#chart-02b15482-4070-4262-874e-d0845389a4ee .color-14,#chart-02b15482-4070-4262-874e-d0845389a4ee .color-14 a:visited{stroke:#00BCD4;fill:#00BCD4}#chart-02b15482-4070-4262-874e-d0845389a4ee .color-15,#chart-02b15482-4070-4262-874e-d0845389a4ee .color-15 a:visited{stroke:#CDDC39;fill:#CDDC39}#chart-02b15482-4070-4262-874e-d0845389a4ee .color-16,#chart-02b15482-4070-4262-874e-d0845389a4ee .color-16 a:visited{stroke:#9E9E9E;fill:#9E9E9E}#chart-02b15482-4070-4262-874e-d0845389a4ee .text-overlay .color-0 text{fill:black}#chart-02b15482-4070-4262-874e-d0845389a4ee .text-overlay .color-1 text{fill:black}#chart-02b15482-4070-4262-874e-d0845389a4ee .text-overlay .color-2 text{fill:black}#chart-02b15482-4070-4262-874e-d0845389a4ee .text-overlay .color-3 text{fill:black}#chart-02b15482-4070-4262-874e-d0845389a4ee .text-overlay .color-4 text{fill:black}#chart-02b15482-4070-4262-874e-d0845389a4ee .text-overlay .color-5 text{fill:black}#chart-02b15482-4070-4262-874e-d0845389a4ee .text-overlay .color-6 text{fill:black}#chart-02b15482-4070-4262-874e-d0845389a4ee .text-overlay .color-7 text{fill:black}#chart-02b15482-4070-4262-874e-d0845389a4ee .text-overlay .color-8 text{fill:black}#chart-02b15482-4070-4262-874e-d0845389a4ee .text-overlay .color-9 text{fill:black}#chart-02b15482-4070-4262-874e-d0845389a4ee .text-overlay .color-10 text{fill:black}#chart-02b15482-4070-4262-874e-d0845389a4ee .text-overlay .color-11 text{fill:black}#chart-02b15482-4070-4262-874e-d0845389a4ee .text-overlay .color-12 text{fill:black}#chart-02b15482-4070-4262-874e-d0845389a4ee .text-overlay .color-13 text{fill:black}#chart-02b15482-4070-4262-874e-d0845389a4ee .text-overlay .color-14 text{fill:black}#chart-02b15482-4070-4262-874e-d0845389a4ee .text-overlay .color-15 text{fill:black}#chart-02b15482-4070-4262-874e-d0845389a4ee .text-overlay .color-16 text{fill:black}
#chart-02b15482-4070-4262-874e-d0845389a4ee text.no_data{text-anchor:middle}#chart-02b15482-4070-4262-874e-d0845389a4ee .guide.line{fill:none}#chart-02b15482-4070-4262-874e-d0845389a4ee .centered{text-anchor:middle}#chart-02b15482-4070-4262-874e-d0845389a4ee .title{text-anchor:middle}#chart-02b15482-4070-4262-874e-d0845389a4ee .legends .legend text{fill-opacity:1}#chart-02b15482-4070-4262-874e-d0845389a4ee .axis.x text{text-anchor:middle}#chart-02b15482-4070-4262-874e-d0845389a4ee .axis.x:not(.web) text[transform]{text-anchor:start}#chart-02b15482-4070-4262-874e-d0845389a4ee .axis.x:not(.web) text[transform].backwards{text-anchor:end}#chart-02b15482-4070-4262-874e-d0845389a4ee .axis.y text{text-anchor:end}#chart-02b15482-4070-4262-874e-d0845389a4ee .axis.y text[transform].backwards{text-anchor:start}#chart-02b15482-4070-4262-874e-d0845389a4ee .axis.y2 text{text-anchor:start}#chart-02b15482-4070-4262-874e-d0845389a4ee .axis.y2 text[transform].backwards{text-anchor:end}#chart-02b15482-4070-4262-874e-d0845389a4ee .axis .guide.line{stroke-dasharray:4,4}#chart-02b15482-4070-4262-874e-d0845389a4ee .axis .major.guide.line{stroke-dasharray:6,6}#chart-02b15482-4070-4262-874e-d0845389a4ee .horizontal .axis.y .guide.line,#chart-02b15482-4070-4262-874e-d0845389a4ee .horizontal .axis.y2 .guide.line,#chart-02b15482-4070-4262-874e-d0845389a4ee .vertical .axis.x .guide.line{opacity:0}#chart-02b15482-4070-4262-874e-d0845389a4ee .horizontal .axis.always_show .guide.line,#chart-02b15482-4070-4262-874e-d0845389a4ee .vertical .axis.always_show .guide.line{opacity:1 !important}#chart-02b15482-4070-4262-874e-d0845389a4ee .axis.y .guides:hover .guide.line,#chart-02b15482-4070-4262-874e-d0845389a4ee .axis.y2 .guides:hover .guide.line,#chart-02b15482-4070-4262-874e-d0845389a4ee .axis.x .guides:hover .guide.line{opacity:1}#chart-02b15482-4070-4262-874e-d0845389a4ee .axis .guides:hover text{opacity:1}#chart-02b15482-4070-4262-874e-d0845389a4ee .nofill{fill:none}#chart-02b15482-4070-4262-874e-d0845389a4ee .subtle-fill{fill-opacity:.2}#chart-02b15482-4070-4262-874e-d0845389a4ee .dot{stroke-width:1px;fill-opacity:1}#chart-02b15482-4070-4262-874e-d0845389a4ee .dot.active{stroke-width:5px}#chart-02b15482-4070-4262-874e-d0845389a4ee .dot.negative{fill:transparent}#chart-02b15482-4070-4262-874e-d0845389a4ee text,#chart-02b15482-4070-4262-874e-d0845389a4ee tspan{stroke:none !important}#chart-02b15482-4070-4262-874e-d0845389a4ee .series text.active{opacity:1}#chart-02b15482-4070-4262-874e-d0845389a4ee .tooltip rect{fill-opacity:.95;stroke-width:.5}#chart-02b15482-4070-4262-874e-d0845389a4ee .tooltip text{fill-opacity:1}#chart-02b15482-4070-4262-874e-d0845389a4ee .showable{visibility:hidden}#chart-02b15482-4070-4262-874e-d0845389a4ee .showable.shown{visibility:visible}#chart-02b15482-4070-4262-874e-d0845389a4ee .gauge-background{fill:rgba(229,229,229,1);stroke:none}#chart-02b15482-4070-4262-874e-d0845389a4ee .bg-lines{stroke:rgba(249,249,249,1);stroke-width:2px}</style><script type="text/javascript">window.pygal = window.pygal || {};window.pygal.config = window.pygal.config || {};window.pygal.config['02b15482-4070-4262-874e-d0845389a4ee'] = {"allow_interruptions": false, "box_mode": "extremes", "classes": ["pygal-chart"], "css": ["file://style.css", "file://graph.css"], "defs": [], "disable_xml_declaration": false, "dots_size": 2.5, "dynamic_print_values": false, "explicit_size": false, "fill": false, "force_uri_protocol": "https", "formatter": null, "half_pie": false, "height": 600, "include_x_axis": false, "inner_radius": 0.7, "interpolate": null, "interpolation_parameters": {}, "interpolation_precision": 250, "inverse_y_axis": false, "js": ["//kozea.github.io/pygal.js/2.0.x/pygal-tooltips.min.js"], "legend_at_bottom": false, "legend_at_bottom_columns": null, "legend_box_size": 12, "logarithmic": false, "margin": 20, "margin_bottom": null, "margin_left": null, "margin_right": null, "margin_top": null, "max_scale": 16, "min_scale": 4, "missing_value_fill_truncation": "x", "no_data_text": "No data", "no_prefix": false, "order_min": null, "pretty_print": false, "print_labels": false, "print_values": false, "print_values_position": "center", "print_zeroes": true, "range": null, "rounded_bars": null, "secondary_range": null, "show_dots": true, "show_legend": true, "show_minor_x_labels": true, "show_minor_y_labels": true, "show_only_major_dots": false, "show_x_guides": false, "show_x_labels": true, "show_y_guides": true, "show_y_labels": true, "spacing": 10, "stack_from_top": false, "strict": false, "stroke": true, "stroke_style": null, "style": {"background": "rgba(249, 249, 249, 1)", "ci_colors": [], "colors": ["#F44336", "#3F51B5", "#009688", "#FFC107", "#FF5722", "#9C27B0", "#03A9F4", "#8BC34A", "#FF9800", "#E91E63", "#2196F3", "#4CAF50", "#FFEB3B", "#673AB7", "#00BCD4", "#CDDC39", "#9E9E9E", "#607D8B"], "font_family": "Consolas, \"Liberation Mono\", Menlo, Courier, monospace", "foreground": "rgba(0, 0, 0, .87)", "foreground_strong": "rgba(0, 0, 0, 1)", "foreground_subtle": "rgba(0, 0, 0, .54)", "guide_stroke_dasharray": "4,4", "label_font_family": "Consolas, \"Liberation Mono\", Menlo, Courier, monospace", "label_font_size": 10, "legend_font_family": "Consolas, \"Liberation Mono\", Menlo, Courier, monospace", "legend_font_size": 14, "major_guide_stroke_dasharray": "6,6", "major_label_font_family": "Consolas, \"Liberation Mono\", Menlo, Courier, monospace", "major_label_font_size": 10, "no_data_font_family": "Consolas, \"Liberation Mono\", Menlo, Courier, monospace", "no_data_font_size": 64, "opacity": ".7", "opacity_hover": ".8", "plot_background": "rgba(255, 255, 255, 1)", "stroke_opacity": ".8", "stroke_opacity_hover": ".9", "title_font_family": "Consolas, \"Liberation Mono\", Menlo, Courier, monospace", "title_font_size": 16, "tooltip_font_family": "Consolas, \"Liberation Mono\", Menlo, Courier, monospace", "tooltip_font_size": 14, "transition": "150ms", "value_background": "rgba(229, 229, 229, 1)", "value_colors": [], "value_font_family": "Consolas, \"Liberation Mono\", Menlo, Courier, monospace", "value_font_size": 16, "value_label_font_family": "Consolas, \"Liberation Mono\", Menlo, Courier, monospace", "value_label_font_size": 10}, "title": "Average Revenue of Movies per year", "tooltip_border_radius": 0, "tooltip_fancy_mode": true, "truncate_label": null, "truncate_legend": null, "width": 800, "x_label_rotation": 0, "x_labels": null, "x_labels_major": null, "x_labels_major_count": null, "x_labels_major_every": null, "x_title": null, "xrange": null, "y_label_rotation": 0, "y_labels": null, "y_labels_major": null, "y_labels_major_count": null, "y_labels_major_every": null, "y_title": null, "zero": 0, "legends": ["2000", "2001", "2002", "2003", "2004", "2005", "2006", "2007", "2008", "2009", "2010", "2011", "2012", "2013", "2014", "2015", "2016"]}</script><script type="text/javascript" xlink:href="https://kozea.github.io/pygal.js/2.0.x/pygal-tooltips.min.js" /></defs><title>Average Revenue of Movies per year</title><g class="graph solidgauge-graph vertical"><rect class="background" height="600" width="800" x="0" y="0" /><g class="plot" transform="translate(75, 46)"><rect class="background" height="534" width="704.4" x="0" y="0" /><path class="bg-lines" d="M140.88 0 L140.88 534" /><path class="bg-lines" d="M281.76 0 L281.76 534" /><path class="bg-lines" d="M422.64 0 L422.64 534" /><path class="bg-lines" d="M563.52 0 L563.52 534" /><path class="bg-lines" d="M0 106.8 L704.4 106.8" /><path class="bg-lines" d="M0 213.6 L704.4 213.6" /><path class="bg-lines" d="M0 320.4 L704.4 320.4" /><path class="bg-lines" d="M0 427.2 L704.4 427.2" /><g class="series serie-0 color-0"><path class="gauge-background reactive" d="M70.440000 5.340000 A48.060000 48.060000 0 1 1 70.439519 5.340000 L70.439664 19.758000 A33.642000 33.642000 0 1 0 70.440000 19.758000 z" /><g class="gauge"><path class="slice reactive tooltip-trigger" d="M70.440000 5.340000 A48.060000 48.060000 0 0 1 88.188205 98.062790 L82.863743 84.663953 A33.642000 33.642000 0 0 0 70.440000 19.758000 z" /><desc class="value">65.97‎M$</desc><desc class="x centered">110.5625989602947</desc><desc class="y centered">45.720074631133514</desc></g></g><g class="series serie-1 color-1"><path class="gauge-background reactive" d="M211.320000 5.340000 A48.060000 48.060000 0 1 1 211.319519 5.340000 L211.319664 19.758000 A33.642000 33.642000 0 1 0 211.320000 19.758000 z" /><g class="gauge"><path class="slice reactive tooltip-trigger" d="M211.320000 5.340000 A48.060000 48.060000 0 0 1 216.323616 101.198822 L214.822532 86.859176 A33.642000 33.642000 0 0 0 211.320000 19.758000 z" /><desc class="value">72.51‎M$</desc><desc class="x centered">252.11546200619847</desc><desc class="y centered">51.27056798633594</desc></g></g><g class="series serie-2 color-2"><path class="gauge-background reactive" d="M352.200000 5.340000 A48.060000 48.060000 0 1 1 352.199519 5.340000 L352.199664 19.758000 A33.642000 33.642000 0 1 0 352.200000 19.758000 z" /><g class="gauge"><path class="slice reactive tooltip-trigger" d="M352.200000 5.340000 A48.060000 48.060000 0 0 1 358.303397 101.070873 L356.472378 86.769611 A33.642000 33.642000 0 0 0 352.200000 19.758000 z" /><desc class="value">71.96‎M$</desc><desc class="x centered">392.9682266802784</desc><desc class="y centered">50.80078966887319</desc></g></g><g class="series serie-3 color-3"><path class="gauge-background reactive" d="M493.080000 5.340000 A48.060000 48.060000 0 1 1 493.079519 5.340000 L493.079664 19.758000 A33.642000 33.642000 0 1 0 493.080000 19.758000 z" /><g class="gauge"><path class="slice reactive tooltip-trigger" d="M493.080000 5.340000 A48.060000 48.060000 0 1 1 475.200913 98.010558 L480.564639 84.627390 A33.642000 33.642000 0 1 0 493.080000 19.758000 z" /><desc class="value">84.1‎M$</desc><desc class="x centered">533.1912964863142</desc><desc class="y centered">61.13873989658529</desc></g></g><g class="series serie-4 color-4"><path class="gauge-background reactive" d="M633.960000 5.340000 A48.060000 48.060000 0 1 1 633.959519 5.340000 L633.959664 19.758000 A33.642000 33.642000 0 1 0 633.960000 19.758000 z" /><g class="gauge"><path class="slice reactive tooltip-trigger" d="M633.960000 5.340000 A48.060000 48.060000 0 1 1 624.381665 100.495850 L627.255165 86.367095 A33.642000 33.642000 0 1 0 633.960000 19.758000 z" /><desc class="value">79.79‎M$</desc><desc class="x centered">674.6056017793659</desc><desc class="y centered">57.491363708252806</desc></g></g><g class="series serie-5 color-5"><path class="gauge-background reactive" d="M70.440000 112.140000 A48.060000 48.060000 0 1 1 70.439519 112.140000 L70.439664 126.558000 A33.642000 33.642000 0 1 0 70.440000 126.558000 z" /><g class="gauge"><path class="slice reactive tooltip-trigger" d="M70.440000 112.140000 A48.060000 48.060000 0 0 1 82.781589 206.648345 L79.079112 192.713842 A33.642000 33.642000 0 0 0 70.440000 126.558000 z" /><desc class="value">68.8‎M$</desc><desc class="x centered">110.94707561226657</desc><desc class="y centered">154.91029052384553</desc></g></g><g class="series serie-6 color-6"><path class="gauge-background reactive" d="M211.320000 112.140000 A48.060000 48.060000 0 1 1 211.319519 112.140000 L211.319664 126.558000 A33.642000 33.642000 0 1 0 211.320000 126.558000 z" /><g class="gauge"><path class="slice reactive tooltip-trigger" d="M211.320000 112.140000 A48.060000 48.060000 0 0 1 220.937787 207.287809 L218.052451 193.161466 A33.642000 33.642000 0 0 0 211.320000 126.558000 z" /><desc class="value">70.19‎M$</desc><desc class="x centered">251.96388442716233</desc><desc class="y centered">156.09161106131953</desc></g></g><g class="series serie-7 color-7"><path class="gauge-background reactive" d="M352.200000 112.140000 A48.060000 48.060000 0 1 1 352.199519 112.140000 L352.199664 126.558000 A33.642000 33.642000 0 1 0 352.200000 126.558000 z" /><g class="gauge"><path class="slice reactive tooltip-trigger" d="M352.200000 112.140000 A48.060000 48.060000 0 1 1 333.446173 204.449944 L339.072321 191.174961 A33.642000 33.642000 0 1 0 352.200000 126.558000 z" /><desc class="value">84.57‎M$</desc><desc class="x centered">392.2331768873916</desc><desc class="y centered">168.33320043419656</desc></g></g><g class="series serie-8 color-8"><path class="gauge-background reactive" d="M493.080000 112.140000 A48.060000 48.060000 0 1 1 493.079519 112.140000 L493.079664 126.558000 A33.642000 33.642000 0 1 0 493.080000 126.558000 z" /><g class="gauge"><path class="slice reactive tooltip-trigger" d="M493.080000 112.140000 A48.060000 48.060000 0 1 1 483.205944 207.234738 L486.168161 193.124317 A33.642000 33.642000 0 1 0 493.080000 126.558000 z" /><desc class="value">79.94‎M$</desc><desc class="x centered">533.7125478244997</desc><desc class="y centered">164.41903523210487</desc></g></g><g class="series serie-9 color-9"><path class="gauge-background reactive" d="M633.960000 112.140000 A48.060000 48.060000 0 1 1 633.959519 112.140000 L633.959664 126.558000 A33.642000 33.642000 0 1 0 633.960000 126.558000 z" /><g class="gauge"><path class="slice reactive tooltip-trigger" d="M633.960000 112.140000 A48.060000 48.060000 0 1 1 613.843784 203.847468 L619.878649 190.753227 A33.642000 33.642000 0 1 0 633.960000 126.558000 z" /><desc class="value">85.31‎M$</desc><desc class="x centered">673.8623213604249</desc><desc class="y centered">168.9526539431985</desc></g></g><g class="series serie-10 color-10"><path class="gauge-background reactive" d="M70.440000 218.940000 A48.060000 48.060000 0 1 1 70.439519 218.940000 L70.439664 233.358000 A33.642000 33.642000 0 1 0 70.440000 233.358000 z" /><g class="gauge"><path class="slice reactive tooltip-trigger" d="M70.440000 218.940000 A48.060000 48.060000 0 1 1 41.495338 305.366263 L50.178736 293.856384 A33.642000 33.642000 0 1 0 70.440000 233.358000 z" /><desc class="value">90.43‎M$</desc><desc class="x centered">109.17634839577545</desc><desc class="y centered">279.97303025361094</desc></g></g><g class="series serie-11 color-11"><path class="gauge-background reactive" d="M211.320000 218.940000 A48.060000 48.060000 0 1 1 211.319519 218.940000 L211.319664 233.358000 A33.642000 33.642000 0 1 0 211.320000 233.358000 z" /><g class="gauge"><path class="slice reactive tooltip-trigger" d="M211.320000 218.940000 A48.060000 48.060000 0 1 1 179.916606 303.381182 L189.337624 292.466828 A33.642000 33.642000 0 1 0 211.320000 233.358000 z" /><desc class="value">92‎M$</desc><desc class="x centered">249.60890655273326</desc><desc class="y centered">281.23951670514344</desc></g></g><g class="series serie-12 color-12"><path class="gauge-background reactive" d="M352.200000 218.940000 A48.060000 48.060000 0 1 1 352.199519 218.940000 L352.199664 233.358000 A33.642000 33.642000 0 1 0 352.200000 233.358000 z" /><g class="gauge"><path class="slice reactive tooltip-trigger" d="M352.200000 218.940000 A48.060000 48.060000 0 1 1 304.673367 259.859780 L318.931357 262.001846 A33.642000 33.642000 0 1 0 352.200000 233.358000 z" /><desc class="value">116.06‎M$</desc><desc class="x centered">378.85400377717866</desc><desc class="y centered">297.9575238616745</desc></g></g><g class="series serie-13 color-13"><path class="gauge-background reactive" d="M493.080000 218.940000 A48.060000 48.060000 0 1 1 493.079519 218.940000 L493.079664 233.358000 A33.642000 33.642000 0 1 0 493.080000 233.358000 z" /><g class="gauge"><path class="slice reactive tooltip-trigger" d="M493.080000 218.940000 A48.060000 48.060000 0 1 1 450.176276 288.657194 L463.047393 282.160036 A33.642000 33.642000 0 1 0 493.080000 233.358000 z" /><desc class="value">101.34‎M$</desc><desc class="x centered">527.8709078970896</desc><desc class="y centered">288.4102061806099</desc></g></g><g class="series serie-14 color-14"><path class="gauge-background reactive" d="M633.960000 218.940000 A48.060000 48.060000 0 1 1 633.959519 218.940000 L633.959664 233.358000 A33.642000 33.642000 0 1 0 633.960000 233.358000 z" /><g class="gauge"><path class="slice reactive tooltip-trigger" d="M633.960000 218.940000 A48.060000 48.060000 0 1 1 591.056276 288.657194 L603.927393 282.160036 A33.642000 33.642000 0 1 0 633.960000 233.358000 z" /><desc class="value">101.34‎M$</desc><desc class="x centered">668.7509078970896</desc><desc class="y centered">288.4102061806099</desc></g></g><g class="series serie-15 color-15"><path class="gauge-background reactive" d="M70.440000 325.740000 A48.060000 48.060000 0 1 1 70.439519 325.740000 L70.439664 340.158000 A33.642000 33.642000 0 1 0 70.440000 340.158000 z" /><g class="gauge"><path class="slice reactive tooltip-trigger" d="M70.440000 325.740000 A48.060000 48.060000 0 1 1 24.472153 387.825713 L38.262507 383.617999 A33.642000 33.642000 0 1 0 70.440000 340.158000 z" /><desc class="value">105.43‎M$</desc><desc class="x centered">103.27156974237545</desc><desc class="y centered">398.1082749131142</desc></g></g><g class="series serie-16 color-16"><path class="gauge-background reactive" d="M211.320000 325.740000 A48.060000 48.060000 0 1 1 211.319519 325.740000 L211.319664 340.158000 A33.642000 33.642000 0 1 0 211.320000 340.158000 z" /><g class="gauge"><path class="slice reactive tooltip-trigger" d="M211.320000 325.740000 A48.060000 48.060000 0 1 1 190.022991 330.716349 L196.412093 343.641444 A33.642000 33.642000 0 1 0 211.320000 340.158000 z" /><desc class="value">139.04‎M$</desc><desc class="x centered">220.61503908746596</desc><desc class="y centered">413.57947271347973</desc></g></g></g><g class="titles"><text class="title plot_title" x="400.0" y="26">Average Revenue of Movies per year</text></g><g class="plot overlay" transform="translate(75, 46)"><g class="series serie-0 color-0" /><g class="series serie-1 color-1" /><g class="series serie-2 color-2" /><g class="series serie-3 color-3" /><g class="series serie-4 color-4" /><g class="series serie-5 color-5" /><g class="series serie-6 color-6" /><g class="series serie-7 color-7" /><g class="series serie-8 color-8" /><g class="series serie-9 color-9" /><g class="series serie-10 color-10" /><g class="series serie-11 color-11" /><g class="series serie-12 color-12" /><g class="series serie-13 color-13" /><g class="series serie-14 color-14" /><g class="series serie-15 color-15" /><g class="series serie-16 color-16" /></g><g class="plot text-overlay" transform="translate(75, 46)"><g class="series serie-0 color-0"><text><textPath class="max-value reactive" startOffset="99%" text-anchor="end" xlink:href="#valuePath-70.4453.4">150‎M$</textPath></text><text class="value gauge-sum" text-anchor="middle" x="70.44" y="58.733333333333334">65.97‎M$</text></g><g class="series serie-1 color-1"><text><textPath class="max-value reactive" startOffset="99%" text-anchor="end" xlink:href="#valuePath-211.3253.4">150‎M$</textPath></text><text class="value gauge-sum" text-anchor="middle" x="211.32" y="58.733333333333334">72.51‎M$</text></g><g class="series serie-2 color-2"><text><textPath class="max-value reactive" startOffset="99%" text-anchor="end" xlink:href="#valuePath-352.253.4">150‎M$</textPath></text><text class="value gauge-sum" text-anchor="middle" x="352.2" y="58.733333333333334">71.96‎M$</text></g><g class="series serie-3 color-3"><text><textPath class="max-value reactive" startOffset="99%" text-anchor="end" xlink:href="#valuePath-493.0853.4">150‎M$</textPath></text><text class="value gauge-sum" text-anchor="middle" x="493.08" y="58.733333333333334">84.1‎M$</text></g><g class="series serie-4 color-4"><text><textPath class="max-value reactive" startOffset="99%" text-anchor="end" xlink:href="#valuePath-633.9653.4">150‎M$</textPath></text><text class="value gauge-sum" text-anchor="middle" x="633.96" y="58.733333333333334">79.79‎M$</text></g><g class="series serie-5 color-5"><text><textPath class="max-value reactive" startOffset="99%" text-anchor="end" xlink:href="#valuePath-70.44160.2">150‎M$</textPath></text><text class="value gauge-sum" text-anchor="middle" x="70.44" y="165.53333333333333">68.8‎M$</text></g><g class="series serie-6 color-6"><text><textPath class="max-value reactive" startOffset="99%" text-anchor="end" xlink:href="#valuePath-211.32160.2">150‎M$</textPath></text><text class="value gauge-sum" text-anchor="middle" x="211.32" y="165.53333333333333">70.19‎M$</text></g><g class="series serie-7 color-7"><text><textPath class="max-value reactive" startOffset="99%" text-anchor="end" xlink:href="#valuePath-352.2160.2">150‎M$</textPath></text><text class="value gauge-sum" text-anchor="middle" x="352.2" y="165.53333333333333">84.57‎M$</text></g><g class="series serie-8 color-8"><text><textPath class="max-value reactive" startOffset="99%" text-anchor="end" xlink:href="#valuePath-493.08160.2">150‎M$</textPath></text><text class="value gauge-sum" text-anchor="middle" x="493.08" y="165.53333333333333">79.94‎M$</text></g><g class="series serie-9 color-9"><text><textPath class="max-value reactive" startOffset="99%" text-anchor="end" xlink:href="#valuePath-633.96160.2">150‎M$</textPath></text><text class="value gauge-sum" text-anchor="middle" x="633.96" y="165.53333333333333">85.31‎M$</text></g><g class="series serie-10 color-10"><text><textPath class="max-value reactive" startOffset="99%" text-anchor="end" xlink:href="#valuePath-70.44267.0">150‎M$</textPath></text><text class="value gauge-sum" text-anchor="middle" x="70.44" y="272.3333333333333">90.43‎M$</text></g><g class="series serie-11 color-11"><text><textPath class="max-value reactive" startOffset="99%" text-anchor="end" xlink:href="#valuePath-211.32267.0">150‎M$</textPath></text><text class="value gauge-sum" text-anchor="middle" x="211.32" y="272.3333333333333">92‎M$</text></g><g class="series serie-12 color-12"><text><textPath class="max-value reactive" startOffset="99%" text-anchor="end" xlink:href="#valuePath-352.2267.0">150‎M$</textPath></text><text class="value gauge-sum" text-anchor="middle" x="352.2" y="272.3333333333333">116.06‎M$</text></g><g class="series serie-13 color-13"><text><textPath class="max-value reactive" startOffset="99%" text-anchor="end" xlink:href="#valuePath-493.08267.0">150‎M$</textPath></text><text class="value gauge-sum" text-anchor="middle" x="493.08" y="272.3333333333333">101.34‎M$</text></g><g class="series serie-14 color-14"><text><textPath class="max-value reactive" startOffset="99%" text-anchor="end" xlink:href="#valuePath-633.96267.0">150‎M$</textPath></text><text class="value gauge-sum" text-anchor="middle" x="633.96" y="272.3333333333333">101.34‎M$</text></g><g class="series serie-15 color-15"><text><textPath class="max-value reactive" startOffset="99%" text-anchor="end" xlink:href="#valuePath-70.44373.8">150‎M$</textPath></text><text class="value gauge-sum" text-anchor="middle" x="70.44" y="379.1333333333333">105.43‎M$</text></g><g class="series serie-16 color-16"><text><textPath class="max-value reactive" startOffset="99%" text-anchor="end" xlink:href="#valuePath-211.32373.8">150‎M$</textPath></text><text class="value gauge-sum" text-anchor="middle" x="211.32" y="379.1333333333333">139.04‎M$</text></g></g><g class="plot tooltip-overlay" transform="translate(75, 46)"><g class="tooltip" style="opacity: 0" transform="translate(0 0)"><rect class="tooltip-box" height="0" rx="0" ry="0" width="0" /><g class="text" /></g></g><g class="legends" transform="translate(10, 56)"><g class="legend reactive activate-serie" id="activate-serie-0"><rect class="color-0 reactive" height="12" width="12" x="0.0" y="1.0" /><text x="17.0" y="11.2">2000</text></g><g class="legend reactive activate-serie" id="activate-serie-1"><rect class="color-1 reactive" height="12" width="12" x="0.0" y="22.0" /><text x="17.0" y="32.2">2001</text></g><g class="legend reactive activate-serie" id="activate-serie-2"><rect class="color-2 reactive" height="12" width="12" x="0.0" y="43.0" /><text x="17.0" y="53.2">2002</text></g><g class="legend reactive activate-serie" id="activate-serie-3"><rect class="color-3 reactive" height="12" width="12" x="0.0" y="64.0" /><text x="17.0" y="74.2">2003</text></g><g class="legend reactive activate-serie" id="activate-serie-4"><rect class="color-4 reactive" height="12" width="12" x="0.0" y="85.0" /><text x="17.0" y="95.2">2004</text></g><g class="legend reactive activate-serie" id="activate-serie-5"><rect class="color-5 reactive" height="12" width="12" x="0.0" y="106.0" /><text x="17.0" y="116.2">2005</text></g><g class="legend reactive activate-serie" id="activate-serie-6"><rect class="color-6 reactive" height="12" width="12" x="0.0" y="127.0" /><text x="17.0" y="137.2">2006</text></g><g class="legend reactive activate-serie" id="activate-serie-7"><rect class="color-7 reactive" height="12" width="12" x="0.0" y="148.0" /><text x="17.0" y="158.2">2007</text></g><g class="legend reactive activate-serie" id="activate-serie-8"><rect class="color-8 reactive" height="12" width="12" x="0.0" y="169.0" /><text x="17.0" y="179.2">2008</text></g><g class="legend reactive activate-serie" id="activate-serie-9"><rect class="color-9 reactive" height="12" width="12" x="0.0" y="190.0" /><text x="17.0" y="200.2">2009</text></g><g class="legend reactive activate-serie" id="activate-serie-10"><rect class="color-10 reactive" height="12" width="12" x="0.0" y="211.0" /><text x="17.0" y="221.2">2010</text></g><g class="legend reactive activate-serie" id="activate-serie-11"><rect class="color-11 reactive" height="12" width="12" x="0.0" y="232.0" /><text x="17.0" y="242.2">2011</text></g><g class="legend reactive activate-serie" id="activate-serie-12"><rect class="color-12 reactive" height="12" width="12" x="0.0" y="253.0" /><text x="17.0" y="263.2">2012</text></g><g class="legend reactive activate-serie" id="activate-serie-13"><rect class="color-13 reactive" height="12" width="12" x="0.0" y="274.0" /><text x="17.0" y="284.2">2013</text></g><g class="legend reactive activate-serie" id="activate-serie-14"><rect class="color-14 reactive" height="12" width="12" x="0.0" y="295.0" /><text x="17.0" y="305.2">2014</text></g><g class="legend reactive activate-serie" id="activate-serie-15"><rect class="color-15 reactive" height="12" width="12" x="0.0" y="316.0" /><text x="17.0" y="326.2">2015</text></g><g class="legend reactive activate-serie" id="activate-serie-16"><rect class="color-16 reactive" height="12" width="12" x="0.0" y="337.0" /><text x="17.0" y="347.2">2016</text></g></g><g class="legends" transform="translate(790, 56)" /></g></svg>